<?xml version="1.0" encoding="UTF-8"?>
<svg version="1.1" xmlns="http://www.w3.org/2000/svg" width="2300" height="700">
<path d="M0 0 C120.12 0 240.24 0 364 0 C364 24.09 364 48.18 364 73 C268.3 73 172.6 73 74 73 C74 120.52 74 168.04 74 217 C93.985625 215.535625 113.97125 214.07125 134.5625 212.5625 C158.59506416 211.69514626 158.59506416 211.69514626 170.33984375 212.29296875 C171.04709052 212.32680656 171.75433729 212.36064437 172.48301578 212.39550757 C202.49740695 213.93482658 222.75201707 224.86459387 243.16574097 247.29611206 C244.6589444 248.98309442 246.14539562 250.67607774 247.625 252.375 C248.36272266 253.21993641 249.10044533 254.06487282 249.86052322 254.93541336 C275 284.02347137 275 284.02347137 275 290 C261.64509161 290.09059908 248.30914235 289.84505243 234.95882225 289.50530243 C231.24915281 289.41096141 227.53942219 289.31944492 223.82966614 289.22857666 C218.47980373 289.09732812 213.12996737 288.96509204 207.78015137 288.83197021 C193.61792924 288.47985222 179.45550638 288.13605313 165.29296875 287.796875 C164.5762382 287.77969406 163.85950765 287.76251311 163.12105799 287.74481153 C129.55541677 286.94104445 95.98728175 286.28804971 62.41711712 285.70276642 C58.27195304 285.63015144 54.12682315 285.55568491 49.98169518 285.48104095 C47.23341818 285.43243406 44.48510432 285.38687838 41.73677063 285.34161377 C27.80753585 285.09230878 13.93110098 284.53581158 0 284 C0 190.28 0 96.56 0 0 Z " fill="#000000" transform="translate(1715,277)"/>
<path d="M0 0 C5.95654202 0.05610135 11.91309622 0.11076636 17.86965626 0.16491699 C112.19400316 1.02421578 206.5127128 2.20894964 498.37936085 8.06921387 C499.38609522 8.09579087 499.38609522 8.09579087 500.41316766 8.12290478 C567.25250092 9.88966388 634.07768855 11.98863912 700.89130229 14.5530901 C702.9097302 14.63048189 704.9281684 14.70759972 706.94661015 14.78462982 C736.42119144 15.91071715 765.88939987 17.14543895 795.35148567 18.5604732 C797.38084774 18.65781732 799.41023875 18.75453864 801.43963498 18.85116768 C805.21646668 19.03188663 808.99312685 19.21581151 812.76974171 19.40100098 C814.42299742 19.48007722 814.42299742 19.48007722 816.10965222 19.56075096 C823.21458047 19.91481917 830.29399881 20.43508497 837.37936085 21.06921387 C837.37936085 21.39921387 837.37936085 21.72921387 837.37936085 22.06921387 C82.66936085 22.06921387 -672.04063915 22.06921387 -1449.62063915 22.06921387 C-1449.62063915 21.73921387 -1449.62063915 21.40921387 -1449.62063915 21.06921387 C-1421.64901929 19.03334256 -1393.63874197 17.87755846 -1365.62063915 16.69421387 C-1364.35297332 16.64044209 -1363.0853075 16.5866703 -1361.77922755 16.53126907 C-1271.12545735 12.68691548 -1180.44393811 9.84116833 -725.40561992 1.11458588 C-721.80816191 1.07146177 -718.2107077 1.02803117 -714.61325389 0.98455811 C-686.5131777 0.6463749 -658.41287628 0.37701991 -630.31164771 0.15549374 C-622.917895 0.0968303 -615.52419196 0.03376515 -608.13049918 -0.03200626 C-524.83115564 -0.77250721 -441.5317592 -1.00390974 0 0 Z " fill="#020202" transform="translate(1455.6206391453743,568.9307861328125)"/>
<path d="M0 0 C91.08 0 182.16 0 276 0 C271.96719087 4.70494399 267.96112007 9.18037141 263.58325195 13.53027344 C262.97271973 14.14095169 262.3621875 14.75162994 261.7331543 15.3808136 C259.73722735 17.37605027 257.73779316 19.36773156 255.73828125 21.359375 C254.34134874 22.7544395 252.94463902 24.14972713 251.54814148 25.54522705 C247.88713053 29.20243733 244.22312721 32.85663509 240.55847168 36.51019287 C236.82557716 40.23284166 233.09552373 43.95833478 229.36523438 47.68359375 C223.34694211 53.69310902 217.32688743 59.70085206 211.30467224 65.70643616 C208.37797417 68.57956675 208.37797417 68.57956675 205.66149712 71.64653873 C203.3188236 73.55488864 201.70170898 73.369436 198.70393372 73.36076355 C197.0604116 73.36696229 197.0604116 73.36696229 195.38368702 73.37328625 C194.17659423 73.36249192 192.96950144 73.3516976 191.72583008 73.34057617 C189.79241147 73.34111858 189.79241147 73.34111858 187.81993389 73.34167194 C184.33095758 73.34234967 180.84228947 73.32495323 177.35338593 73.30384064 C174.08044782 73.28676506 170.80752327 73.28595179 167.5345459 73.28381348 C157.96048972 73.26806691 148.38649098 73.22618348 138.8125 73.1875 C106.7303125 73.0946875 106.7303125 73.0946875 74 73 C74 144.94 74 216.88 74 291 C49.91 291 25.82 291 1 291 C0 290 0 290 -0.1241985 288.01631302 C-0.12381878 287.13574157 -0.12343906 286.25517012 -0.12304783 285.3479147 C-0.12503888 284.33573893 -0.12702993 283.32356316 -0.12908131 282.28071541 C-0.12616847 281.15525324 -0.12325563 280.02979108 -0.12025452 278.870224 C-0.12110894 277.68513939 -0.12196337 276.50005478 -0.12284368 275.27905852 C-0.12421187 271.97483961 -0.12106439 268.67067922 -0.11606562 265.36646736 C-0.11176443 261.80885114 -0.11320731 258.25123686 -0.1139679 254.69361877 C-0.11449334 248.52489222 -0.11134439 242.35617621 -0.10573006 236.18745232 C-0.09761785 227.26841164 -0.09500012 218.34937609 -0.09374207 209.43033213 C-0.09155111 194.96128298 -0.08488983 180.49223945 -0.07543945 166.02319336 C-0.06626647 151.96427437 -0.05919654 137.90535692 -0.05493164 123.84643555 C-0.05466364 122.97162767 -0.05439565 122.09681979 -0.05411953 121.19550258 C-0.05204022 114.3543684 -0.05008325 107.51323418 -0.04816496 100.67209995 C-0.03872394 67.11472814 -0.01860738 33.5573704 0 0 Z " fill="#000000" transform="translate(166,277)"/>
<path d="M0 0 C1.68328777 0.18193153 1.68328777 0.18193153 3.40058136 0.36753845 C16.99665713 1.95493515 30.08990377 4.71304723 43.125 8.875 C39.32415158 13.41421505 35.39991215 17.74405653 31.2024231 21.91783142 C30.35556326 22.76597289 30.35556326 22.76597289 29.49159515 23.63124853 C27.61931664 25.50516019 25.74351253 27.37550039 23.86767578 29.24584961 C22.51683931 30.59640371 21.16622358 31.94717864 19.81581116 33.29815674 C16.16355963 36.95069431 12.50824056 40.60014781 8.85235071 44.24904323 C5.02687803 48.06825027 1.20425085 51.89030321 -2.61868286 55.71205139 C-9.85196067 62.94222534 -17.08778306 70.1698471 -24.32452977 77.39654881 C-32.56591059 85.62673913 -40.80444059 93.85978064 -49.04273582 102.09305942 C-65.9836602 119.02354082 -82.92815029 135.9504498 -99.875 152.875 C-98.27362624 156.85052604 -95.5040013 159.51729596 -92.5093689 162.47441101 C-91.95638048 163.02840271 -91.40339206 163.58239442 -90.83364642 164.15317374 C-88.97893501 166.008838 -87.11716936 167.8572587 -85.25537109 169.70581055 C-83.92460725 171.03437331 -82.59429072 172.36338426 -81.26438904 173.69281006 C-78.39986086 176.55440423 -75.53220357 179.41281223 -72.6620903 182.26880455 C-68.12862915 186.78002748 -63.60224128 191.29830242 -59.07681274 195.81758118 C-51.92309574 202.95991537 -44.76472056 210.09755993 -37.60431159 217.23318464 C-24.76845165 230.02469909 -11.9382008 242.8218339 0.88689172 255.6241439 C5.39188611 260.12070437 9.89967367 264.61444091 14.40968728 269.10596693 C17.20708854 271.89276631 20.00249369 274.68156149 22.79739189 277.47087097 C24.09945656 278.76944925 25.40239272 280.06715434 26.70623589 281.36394691 C28.47754352 283.12588197 30.24581472 284.89080796 32.01333618 286.65653992 C32.53724996 287.17617662 33.06116374 287.69581332 33.6009537 288.23119658 C37.125 291.76093554 37.125 291.76093554 37.125 292.875 C23.75482041 293.83177376 10.39239322 294.15393035 -3.00805664 294.37768555 C-7.60863625 294.45510446 -12.20900726 294.54175164 -16.80928707 294.6352911 C-19.15647179 294.67086573 -21.50410398 294.68679549 -23.85153294 294.67588902 C-29.92709736 294.66638996 -35.67036519 294.92275346 -41.6605072 295.96958923 C-52.47047792 297.50010363 -61.85800057 297.62231891 -70.91937953 291.04290539 C-80.10418894 283.73760929 -88.1453609 275.11924478 -96.18689108 266.60492706 C-99.97546477 262.62694019 -103.85103166 258.73548181 -107.71755981 254.83349609 C-115.00344485 247.45489866 -122.20956944 240.00336701 -129.38913453 232.52143669 C-137.57582477 223.99771615 -145.84937707 215.56050605 -154.13077521 207.12893295 C-171.14283624 189.80451104 -188.0447691 172.37599129 -204.875 154.875 C-203.24337441 151.02339532 -200.6751923 148.10884689 -197.94345093 145.00311279 C-197.18134249 144.12815188 -197.18134249 144.12815188 -196.40383792 143.235515 C-194.6961021 141.28040553 -192.98056777 139.3323803 -191.26318359 137.38574219 C-190.66139337 136.70210783 -190.05960315 136.01847347 -189.43957686 135.31412292 C-172.76193378 116.39415101 -155.62048691 97.90906421 -138.25 79.625 C-137.45198062 78.78331866 -136.65396124 77.94163733 -135.83175945 77.07445049 C-56.81164771 -6.16912474 -56.81164771 -6.16912474 0 0 Z " fill="#000000" transform="translate(537.875,268.125)"/>
<path d="M0 0 C32.64248834 -10.47390669 72.11282884 -15.57877738 104 0 C131.32475397 15.06409994 154.05602201 39.76102551 175.84375 61.65234375 C176.61256768 62.42372997 177.38138535 63.1951162 178.17350054 63.98987776 C198.21836635 84.12545493 217.73110204 104.74669576 237.08852482 125.54121554 C248.3477817 137.62662372 259.73949639 149.57503242 271.22949219 161.44116211 C272.0445017 162.28292946 272.85951121 163.12469681 273.69921798 163.99197226 C277.7907993 168.21651763 281.88455151 172.438952 285.97930431 176.66042316 C310.79004616 202.2440991 335.44602525 227.96852448 359.83962297 253.95047486 C361.75245916 255.98781333 363.66610602 258.02438813 365.57979202 260.06092834 C368.51736591 263.18824266 371.45163534 266.31861954 374.38275748 269.45198149 C375.4475672 270.5899428 376.51307995 271.72724671 377.57933253 272.86385619 C379.01755062 274.39785159 380.45250322 275.9348253 381.88640594 277.47285366 C382.68667945 278.32912301 383.48695296 279.18539235 384.31147718 280.06760925 C386 282 386 282 386 283 C379.56486266 283.02596908 373.12975952 283.0434098 366.69458008 283.05493164 C364.53474394 283.05976488 362.37491059 283.06641678 360.21508789 283.07543945 C359.20115967 283.07954834 358.18723145 283.08365723 357.14257812 283.08789062 C355.63963196 283.09864199 355.63963196 283.09864199 354.10632324 283.10961056 C351.77307421 283.1017658 349.43953389 283.05317061 347.10813904 282.95983982 C339.82294267 282.73050025 333.17174939 283.05247307 325.99916297 284.41508043 C308.94651497 287.5078775 290.23868765 288.38612365 275.20445853 278.54718636 C255.02128419 264.38682822 238.04265999 245.31416578 221.12680244 227.54254394 C213.53919394 219.5816875 205.80125739 211.77369616 198.05327348 203.9693715 C184.24638768 190.05421615 170.55936805 176.02725829 156.94555664 161.92333984 C143.7419114 148.24485726 130.48205044 134.62493152 117.14477539 121.07666016 C116.31935398 120.23814253 115.49393257 119.39962489 114.64349838 118.53569764 C110.50116409 114.32830151 106.35778101 110.12193991 102.21395719 105.91601086 C77.0255509 80.34707966 51.91252699 54.70584761 26.93235195 28.93337989 C24.96528639 26.90436702 22.99733901 24.87621288 21.02920341 22.84823799 C18.00689914 19.73346573 14.98736919 16.6160318 11.97032598 13.49616343 C10.87379314 12.36283874 9.77647478 11.23027349 8.67833044 10.09851021 C7.19662251 8.57089256 5.71807136 7.04029103 4.2404356 5.50873566 C3.41555415 4.65604615 2.5906727 3.80335664 1.74079484 2.92482805 C0 1 0 1 0 0 Z " fill="#000000" transform="translate(1271,277)"/>
<path d="M0 0 C32.63961639 -10.32625691 72.11905425 -15.4904982 104 0 C131.08885758 14.86230012 153.61522747 39.32014668 175.1875 60.99609375 C175.94810793 61.75927023 176.70871586 62.5224467 177.49237251 63.30874974 C197.31904985 83.22612062 216.61341923 103.62880077 235.75237846 124.20506918 C246.88420661 136.16313638 258.14853832 147.9841069 269.51123047 159.72290039 C270.31727899 160.55570675 271.12332752 161.38851312 271.95380175 162.24655604 C276.00043025 166.42614921 280.04923037 170.60363135 284.09903145 174.78015029 C308.63568632 200.08968359 333.01751309 225.53987486 357.13682103 251.24767292 C359.02796677 253.26332028 360.91992304 255.27820461 362.81191826 257.29305458 C365.71618526 260.38706292 368.617147 263.48413198 371.51496089 266.58418489 C372.56765778 267.71003259 373.62105755 268.83522353 374.67519701 269.95972066 C376.09707786 271.47738044 377.51569274 272.99801592 378.93325806 274.51970577 C379.72441828 275.36686183 380.5155785 276.21401789 381.33071327 277.08684534 C383 279 383 279 383 280 C350.36038361 290.32625691 310.88094575 295.4904982 279 280 C251.91114242 265.13769988 229.38477253 240.67985332 207.8125 219.00390625 C207.05189207 218.24072977 206.29128414 217.4775533 205.50762749 216.69125026 C185.68095015 196.77387938 166.38658077 176.37119923 147.24762154 155.79493082 C136.11579339 143.83686362 124.85146168 132.0158931 113.48876953 120.27709961 C112.68272101 119.44429325 111.87667248 118.61148688 111.04619825 117.75344396 C106.99956975 113.57385079 102.95076963 109.39636865 98.90096855 105.21984971 C74.36431368 79.91031641 49.98248691 54.46012514 25.86317897 28.75232708 C23.97203323 26.73667972 22.08007696 24.72179539 20.18808174 22.70694542 C17.28381474 19.61293708 14.382853 16.51586802 11.48503911 13.41581511 C10.43234222 12.28996741 9.37894245 11.16477647 8.32480299 10.04027934 C6.90292214 8.52261956 5.48430726 7.00198408 4.06674194 5.48029423 C3.27558172 4.63313817 2.4844215 3.78598211 1.66928673 2.91315466 C0 1 0 1 0 0 Z " fill="#000000" transform="translate(720,277)"/>
<path d="M0 0 C24.42 0 48.84 0 74 0 C74 92.4 74 184.8 74 280 C49.91 280 25.82 280 1 280 C0 279 0 279 -0.1241985 277.08684534 C-0.12381878 276.23968928 -0.12343906 275.39253322 -0.12304783 274.51970577 C-0.12503888 273.54584736 -0.12702993 272.57198894 -0.12908131 271.56861967 C-0.12471205 269.94462707 -0.12471205 269.94462707 -0.12025452 268.28782654 C-0.12110894 267.147661 -0.12196337 266.00749547 -0.12284368 264.83277947 C-0.12421181 261.65398473 -0.12106455 258.47523022 -0.11606562 255.29644024 C-0.11176426 251.87379461 -0.11320732 248.45115099 -0.1139679 245.02850342 C-0.11449333 239.09386686 -0.11134449 233.15924127 -0.10573006 227.22460747 C-0.0976177 218.64402676 -0.09500011 210.06345137 -0.09374207 201.48286725 C-0.09155113 187.56287529 -0.08488992 173.64288917 -0.07543945 159.72290039 C-0.06626641 146.19751006 -0.05918505 132.67212132 -0.05493164 119.14672852 C-0.05466892 118.31361947 -0.05440619 117.48051043 -0.05413551 116.62215566 C-0.05283051 112.44287042 -0.05156679 108.26358518 -0.05032361 104.08429992 C-0.03994969 69.38952809 -0.0215107 34.69476707 0 0 Z " fill="#000000" transform="translate(1146,277)"/>
<path d="M0 0 C24.09 0 48.18 0 73 0 C73 93.39 73 186.78 73 283 C36.865 283.495 36.865 283.495 0 284 C0 190.28 0 96.56 0 0 Z " fill="#000000" transform="translate(614,277)"/>
<path d="M0 0 C24.09 0 48.18 0 73 0 C73 84.81 73 169.62 73 257 C70.69 255.02 68.38 253.04 66 251 C63.75187828 249.66871228 61.46515623 248.40073209 59.14672852 247.19604492 C49.6646603 242.02594122 40.99757475 235.92104146 32.5625 229.1875 C31.78832985 228.57030342 31.0141597 227.95310684 30.21652985 227.31720734 C10.40203824 211.06536299 -0.26251416 191.90986643 -2.83548915 166.62556684 C-5.17911779 140.62067932 -4.81072275 114.4471079 -4.125 88.375 C-4.08343222 86.75892326 -4.08343222 86.75892326 -4.04102468 85.1101985 C-3.29516894 56.6986952 -1.86397406 28.35934424 0 0 Z " fill="#000000" transform="translate(1594,277)"/>
<path d="M0 0 C2.31 1.98 4.62 3.96 7 6 C9.25047762 7.37792321 11.53689514 8.69863598 13.85327148 9.96264648 C23.30282487 15.34718565 31.98791948 21.59904702 40.4375 28.4375 C41.21167015 29.06325676 41.9858403 29.68901352 42.78347015 30.3337326 C63.04600704 47.15156742 73.63431195 66.3116475 76.09521484 92.27490234 C78.13079588 115.994698 77.78697069 139.85233166 77.125 163.625 C77.09728815 164.64264734 77.06957629 165.66029468 77.04102468 166.70877981 C76.84278164 173.84143251 76.61158096 180.97254691 76.35327148 188.10327148 C76.32081774 189.00208986 76.28836399 189.90090824 76.2549268 190.82696354 C75.55148706 209.57939459 74.20876247 228.26621671 73 247 C48.91 247 24.82 247 0 247 C0 165.49 0 83.98 0 0 Z " fill="#000000" transform="translate(1268,310)"/>
<path d="M0 0 C14.27115685 -4.58326023 28.60025852 -7.37971782 43.5 -9 C45.18576708 -9.18445805 45.18576708 -9.18445805 46.90559006 -9.37264252 C75.7981012 -12.14376699 99.20878537 -6.09605418 121.65008569 12.06435728 C143.76274388 30.39855398 163.81948935 51.05849232 183.5625 71.875 C184.37817066 72.73328651 185.19384132 73.59157303 186.03422928 74.47586823 C203.50292282 92.86889754 220.68018539 111.51887991 237.44750977 130.55419922 C238.04952682 131.2357073 238.65154387 131.91721539 239.27180386 132.61937523 C240.93395653 134.50519519 242.58847835 136.39735536 244.23976135 138.29269409 C244.72842165 138.8471678 245.21708194 139.4016415 245.72055012 139.97291744 C249 143.76822042 249 143.76822042 249 146 C234.92353706 150.62057022 220.78603351 153.4309172 206.0625 155.0625 C204.39583282 155.248463 204.39583282 155.248463 202.69549561 155.43818283 C173.85929413 158.25923845 150.64095277 151.98671402 128.30935442 133.83791053 C106.07789835 115.33263838 85.88216115 94.52502936 66 73.5625 C65.17793139 72.69727549 64.35586278 71.83205098 63.508883 70.94060755 C45.90164518 52.39531001 28.5826542 33.5968439 11.66015625 14.42407227 C11.05258771 13.73593103 10.44501917 13.04778979 9.81903946 12.33879578 C8.14383088 10.43752512 6.47311422 8.5324513 4.80493164 6.62501526 C4.3116981 6.06373775 3.81846456 5.50246023 3.31028455 4.92417431 C0 1.1176024 0 1.1176024 0 0 Z " fill="#000000" transform="translate(1881,422)"/>
<path d="M0 0 C79.2 0 158.4 0 240 0 C240 24.09 240 48.18 240 73 C198.94736804 76.03677004 198.94736804 76.03677004 183.89648438 76.65649414 C182.97045253 76.69475063 182.04442068 76.73300713 181.09032726 76.77242291 C174.22790611 77.04914853 167.3646044 77.28480255 160.5 77.5 C159.53191532 77.53120359 158.56383064 77.56240718 157.56641006 77.59455633 C70.32457868 80.3303991 70.32457868 80.3303991 39.42224121 52.23092651 C34.45104353 47.44596439 29.91450475 42.36084317 25.5 37.0625 C24.78284821 36.20357147 24.06569641 35.34464294 23.32681274 34.45968628 C0 6.12807781 0 6.12807781 0 0 Z " fill="#000000" transform="translate(859,277)"/>
<path d="M0 0 C26.71981866 -1.78950528 53.41691703 -3.10617824 80.1875 -3.8125 C81.16036201 -3.83886001 82.13322403 -3.86522001 83.13556671 -3.89237881 C170.80759862 -6.20209828 170.80759862 -6.20209828 197.39823914 17.54722595 C201.60081004 21.55874209 205.36054066 25.8516466 209 30.375 C209.58561581 31.10035824 210.17123161 31.82571648 210.77459335 32.57305527 C229 55.53169397 229 55.53169397 229 63 C190.06463936 63.72927811 151.13336359 64.23495077 112.19207764 64.53222656 C106.9950068 64.57278077 101.79796704 64.61675735 96.60092354 64.66065407 C64.3992754 64.9309843 32.20293383 65.04352588 0 65 C0 43.55 0 22.1 0 0 Z " fill="#000000" transform="translate(735,494)"/>
<path d="M0 0 C5.94 0 11.88 0 18 0 C25.06948411 19.97637641 32.10383445 39.96298443 39 60 C40.70251043 57.44623436 41.57069061 55.66897511 42.5246582 52.82666016 C42.95069084 51.5685704 42.95069084 51.5685704 43.3853302 50.2850647 C43.83847847 48.92579361 43.83847847 48.92579361 44.30078125 47.5390625 C44.61903366 46.59751312 44.93728607 45.65596375 45.2651825 44.68588257 C46.28512332 41.66697494 47.29926634 38.64616475 48.3125 35.625 C52.33276192 23.66028134 56.34060263 11.73411098 61 0 C66.94 0 72.88 0 79 0 C79.02311927 15.62878415 79.04097937 31.25756227 79.05181217 46.88635921 C79.05697505 54.14258849 79.06401758 61.39880696 79.07543945 68.6550293 C79.08538656 74.97733856 79.09185349 81.29964001 79.09408849 87.62195688 C79.09539556 90.9715675 79.09848113 94.32115574 79.10573006 97.6707592 C79.1129362 101.40413645 79.11399112 105.13746658 79.11352539 108.87084961 C79.11712067 109.98934296 79.12071594 111.1078363 79.12442017 112.26022339 C79.1230455 113.27129654 79.12167084 114.28236969 79.12025452 115.32408142 C79.12117631 116.20808089 79.1220981 117.09208036 79.12304783 118.0028677 C79 120 79 120 78 121 C72.39 121 66.78 121 61 121 C60.67 98.56 60.34 76.12 60 53 C55.10525381 67.76344474 55.10525381 67.76344474 50.21704102 82.52905273 C49.60456733 84.37231214 48.99187119 86.21549765 48.37890625 88.05859375 C48.06014526 89.02510864 47.74138428 89.99162354 47.41296387 90.98742676 C47.1085437 91.90092896 46.80412354 92.81443115 46.49047852 93.75561523 C46.22622574 94.55281479 45.96197296 95.35001434 45.68971252 96.17137146 C45 98 45 98 44 99 C40.7 99 37.4 99 34 99 C29.38 84.81 24.76 70.62 20 56 C19.90912109 62.91259766 19.90912109 62.91259766 19.81640625 69.96484375 C19.77593157 72.87696293 19.73516843 75.78907229 19.69335938 78.70117188 C19.62696416 83.32768501 19.56166212 87.95419613 19.50268555 92.58081055 C19.4550935 96.30910087 19.40275285 100.03729652 19.34705925 103.76547432 C19.32661222 105.19086933 19.30790309 106.61629032 19.29092598 108.04173088 C19.26693404 110.03170541 19.23629864 112.02159655 19.20532227 114.01147461 C19.18977798 115.14620712 19.1742337 116.28093964 19.15821838 117.45005798 C19 120 19 120 18 121 C15.15664952 121.09986975 12.34302837 121.13877881 9.5 121.125 C8.70207031 121.12886719 7.90414062 121.13273437 7.08203125 121.13671875 C1.12660767 121.12660767 1.12660767 121.12660767 0 120 C-0.09588124 118.44379604 -0.12188033 116.88323546 -0.12025452 115.32408142 C-0.12162918 114.31300827 -0.12300385 113.30193512 -0.12442017 112.26022339 C-0.12082489 111.14173004 -0.11722961 110.02323669 -0.11352539 108.87084961 C-0.11367142 107.70027512 -0.11381744 106.52970062 -0.1139679 105.32365417 C-0.11338895 102.10479057 -0.10835991 98.88596996 -0.10139394 95.66711497 C-0.09515957 92.306526 -0.09455654 88.94593627 -0.09336853 85.58534241 C-0.09025546 79.21757658 -0.0820424 72.84982784 -0.07201904 66.48206955 C-0.06085715 59.23430271 -0.05534726 51.98653507 -0.05032361 44.73876178 C-0.03985977 29.82583141 -0.02206031 14.91291805 0 0 Z " fill="#000000" transform="translate(166,110)"/>
<path d="M0 0 C41.35294118 0 41.35294118 0 50 7 C58.11053802 15.11053802 59.24633517 26.60721869 59.25097656 37.47387695 C59.1052394 47.76711578 56.38994948 55.1919601 49.375 62.875 C47 65 47 65 45 65 C46.9200153 70.90431564 48.84061154 76.80844189 50.76171875 82.71240234 C51.41356657 84.71593262 52.06526265 86.71951226 52.71679688 88.72314453 C57.80519571 104.37910944 57.80519571 104.37910944 63 120 C62 121 62 121 60.23413086 121.11352539 C59.48526611 121.10828857 58.73640137 121.10305176 57.96484375 121.09765625 C57.15595703 121.09443359 56.34707031 121.09121094 55.51367188 121.08789062 C54.66353516 121.07951172 53.81339844 121.07113281 52.9375 121.0625 C52.08349609 121.05798828 51.22949219 121.05347656 50.34960938 121.04882812 C48.23304337 121.03700373 46.11651315 121.01906769 44 121 C40.32630362 112.59899379 37.70011247 103.90195931 35.0534668 95.1394043 C34.30842202 92.6740057 33.55608616 90.21091833 32.80273438 87.74804688 C32.32248991 86.1694006 31.84265739 84.59062892 31.36328125 83.01171875 C31.02892815 81.91630013 31.02892815 81.91630013 30.68782043 80.79875183 C29.61039832 77.22145492 28.64860928 73.68084642 28 70 C24.7 70 21.4 70 18 70 C18 86.83 18 103.66 18 121 C12.06 121 6.12 121 0 121 C0 81.07 0 41.14 0 0 Z M18 17 C18 29.21 18 41.42 18 54 C29.24457234 54.67917359 29.24457234 54.67917359 38.375 49.6875 C42.48802745 42.88518536 42.05602199 32.52017584 40.3125 24.9375 C38.74959237 21.43956388 37.24076805 20.00618975 34 18 C28.74689927 16.51492875 28.74689927 16.51492875 18 17 Z " fill="#000000" transform="translate(790,110)"/>
<path d="M0 0 C39.79726891 0 39.79726891 0 48.3125 8.171875 C54.26970018 14.62550853 56.24370079 20.74273977 56.2746582 29.4230957 C56.27976913 30.14103302 56.28488007 30.85897034 56.29014587 31.59866333 C56.30397647 33.95778891 56.30308972 36.31662009 56.30078125 38.67578125 C56.30467248 40.32716478 56.30900803 41.97854733 56.31376648 43.62992859 C56.32121518 47.08722175 56.32094775 50.54441277 56.31567383 54.00170898 C56.30988862 58.41308071 56.32679363 62.82403127 56.3500185 67.23533344 C56.36481592 70.64560861 56.36561927 74.05578384 56.36250877 77.46608543 C56.36301922 79.09144104 56.3682046 80.71680264 56.37832069 82.34212685 C56.4379299 93.26062978 56.3117507 103.10733023 49 112 C36.0779163 124.76564201 16.45076537 121 0 121 C0 81.07 0 41.14 0 0 Z M18 17 C18 45.71 18 74.42 18 104 C27.33116678 104.32329888 27.33116678 104.32329888 35 101 C38.0306539 97.03314372 38.37849672 94.03027737 38.38818359 89.10180664 C38.39606903 88.09104317 38.39606903 88.09104317 38.40411377 87.05986023 C38.41726531 84.84305303 38.40859252 82.62697015 38.3984375 80.41015625 C38.40045988 78.86225752 38.40337269 77.31435971 38.40713501 75.76646423 C38.41155198 72.52593901 38.40514859 69.28566229 38.39111328 66.04516602 C38.37403587 61.90135146 38.38385704 57.75812051 38.40183067 53.61432743 C38.41269783 50.41861109 38.40920854 47.22303191 38.4014473 44.02731133 C38.39945263 42.49996305 38.40187868 40.97260213 38.40888596 39.44526863 C38.4165475 37.3057088 38.40483147 35.16707888 38.38818359 33.02758789 C38.38460342 31.20488121 38.38460342 31.20488121 38.38095093 29.34535217 C37.95508472 25.60557271 36.95124103 23.2018312 35 20 C29.30311357 15.72733518 25.88480602 17 18 17 Z " fill="#010101" transform="translate(1167,110)"/>
<path d="M0 0 C5.59292098 5.27025247 8.92775244 13.0134056 9.27217102 20.62928772 C9.28693733 22.56474709 9.28693733 22.56474709 9.30200195 24.53930664 C9.31185875 25.61095566 9.31185875 25.61095566 9.32191467 26.70425415 C9.34159348 29.06455607 9.35330144 31.42479434 9.36328125 33.78515625 C9.36735678 34.59520048 9.3714323 35.40524471 9.37563133 36.23983574 C9.39647434 40.5318768 9.41078069 44.82388612 9.42016602 49.1159668 C9.43119473 53.52502296 9.4655583 57.93356948 9.50533772 62.34244633 C9.5316313 65.75279097 9.53986933 69.16301684 9.54344749 72.5734539 C9.54828481 74.1971828 9.5598162 75.82090743 9.57848549 77.44453621 C9.69131595 87.91223322 9.35536324 97.93618728 2.9375 106.75 C-3.80278914 113.04093653 -12.35895259 116.92847738 -21.70703125 116.62109375 C-30.62097889 115.60924023 -38.02993352 112.20018147 -43.66796875 105.125 C-48.02774005 98.82870321 -49.022558 94.37286415 -49.06787109 86.73583984 C-49.07604858 85.97103302 -49.08422607 85.2062262 -49.09265137 84.41824341 C-49.11743131 81.8908159 -49.13400526 79.36344441 -49.1484375 76.8359375 C-49.15376118 75.96948231 -49.15908485 75.10302711 -49.16456985 74.2103157 C-49.19127346 69.62117652 -49.21065445 65.03206422 -49.22509766 60.44287109 C-49.23841567 56.65811888 -49.2662325 52.87390853 -49.30712891 49.08935547 C-49.35663755 44.50701864 -49.3812411 39.92517172 -49.38832474 35.34257889 C-49.39500733 33.60356927 -49.41015076 31.86456929 -49.43421555 30.12571335 C-49.57167636 19.58937164 -49.52624567 10.34361464 -41.86654663 2.25375366 C-30.02214244 -8.89809832 -13.13488727 -10.02924147 0 0 Z M-29.49719238 16.04312134 C-31.39878801 19.26148811 -31.27020739 21.70739914 -31.29492188 25.43505859 C-31.30339142 26.13801559 -31.31186096 26.8409726 -31.32058716 27.56523132 C-31.34395075 29.88481839 -31.34497943 32.20374175 -31.34375 34.5234375 C-31.35085275 36.14002751 -31.35855191 37.756615 -31.36682129 39.37319946 C-31.38026513 42.76091518 -31.38183571 46.14839789 -31.37597656 49.53613281 C-31.37008488 53.86967024 -31.40064918 58.20208561 -31.44109344 62.53540611 C-31.46699269 65.87439966 -31.46984581 69.21312398 -31.46620178 72.55220413 C-31.46789142 74.14935752 -31.47751905 75.74652355 -31.49534607 77.34357834 C-31.51757879 79.5818575 -31.50781524 81.81787839 -31.49023438 84.05615234 C-31.49228882 85.32760101 -31.49434326 86.59904968 -31.49645996 87.9090271 C-30.66982495 92.51929121 -29.20718644 94.12199731 -25.875 97.375 C-21.65548451 98.70336599 -19.37997474 98.51807618 -15.125 97.3125 C-11.2403107 94.99662753 -10.53042949 93.52429993 -8.875 89.375 C-8.42599417 86.0288678 -8.42599417 86.0288678 -8.48681641 82.45507812 C-8.47893097 81.45872597 -8.47893097 81.45872597 -8.47088623 80.44224548 C-8.4577651 78.26333565 -8.46639553 76.08516627 -8.4765625 73.90625 C-8.47453948 72.38220073 -8.47162614 70.85815241 -8.46786499 69.33410645 C-8.46345234 66.14663437 -8.46983828 62.95941523 -8.48388672 59.77197266 C-8.50097822 55.69656487 -8.49113131 51.62174989 -8.47316933 47.54636383 C-8.46230267 44.40126113 -8.46579098 41.25629781 -8.4735527 38.1111908 C-8.47554676 36.60896229 -8.47312347 35.10672092 -8.46611404 33.60450745 C-8.45845164 31.50097374 -8.47016895 29.39838558 -8.48681641 27.29492188 C-8.48920319 26.10056519 -8.49158997 24.9062085 -8.49404907 23.67565918 C-8.92375019 19.95261549 -9.91428368 17.55479788 -11.875 14.375 C-18.5705631 10.00832841 -23.8448899 10.23078584 -29.49719238 16.04312134 Z " fill="#000000" transform="translate(1024.875,115.625)"/>
<path d="M0 0 C1.0209375 0.49306641 1.0209375 0.49306641 2.0625 0.99609375 C8.80029737 4.68401693 13.19359162 10.49759806 15.375 17.875 C16.3863579 22.87110802 16.12677867 27.9288534 16 33 C10.06 33 4.12 33 -2 33 C-2.390625 30.00520833 -2.78125 27.01041667 -3.171875 24.015625 C-4.12891426 20.53055749 -5.15593084 19.1869557 -8 17 C-13.08600714 15.85154677 -17.34556154 15.22950092 -22 18 C-24.66324313 25.38452428 -24.30962355 32.99280712 -24.30078125 40.75390625 C-24.30467551 42.18302025 -24.30901167 43.61213311 -24.31376648 45.04124451 C-24.32119407 48.02419808 -24.32096178 51.00703321 -24.31567383 53.98999023 C-24.30986984 57.79842677 -24.32684898 61.60637844 -24.3500185 65.41473484 C-24.36479734 68.36169736 -24.36562217 71.30854402 -24.36250877 74.25553703 C-24.36301944 75.65926006 -24.36820911 77.06299001 -24.37832069 78.46667671 C-24.55785085 88.67147271 -24.55785085 88.67147271 -21 98 C-18.14787234 100.85212766 -15.98009518 100.73901015 -12 101 C-8.18521102 100.69652794 -8.18521102 100.69652794 -5 99 C-2.43060248 92.76250636 -2.56487753 86.22799236 -2.375 79.5625 C-2.33632813 78.44939453 -2.29765625 77.33628906 -2.2578125 76.18945312 C-2.16409365 73.45989148 -2.08098269 70.72996919 -2 68 C-6.62 68 -11.24 68 -16 68 C-16 62.72 -16 57.44 -16 52 C-5.44 52 5.12 52 16 52 C16.06920295 57.94120138 16.12883653 63.88098103 16.16479492 69.82226562 C16.17979884 71.83956667 16.20020855 73.85683556 16.22631836 75.87402344 C16.26307353 78.78849263 16.27981068 81.70252726 16.29296875 84.6171875 C16.30845261 85.50614716 16.32393646 86.39510681 16.33988953 87.31100464 C16.34264184 97.75867791 13.75221643 105.30683219 6.48046875 112.86328125 C0.49626352 118.0181793 -6.86196577 120.33601544 -14.71875 120.21875 C-23.28899418 119.39694576 -30.37697891 116.03787391 -36.1875 109.6875 C-41.73593603 102.90446432 -43.11277475 95.70871676 -43.16113281 87.08935547 C-43.16609772 86.41379105 -43.17106262 85.73822662 -43.17617798 85.04219055 C-43.19072662 82.81717896 -43.19759103 80.59223876 -43.203125 78.3671875 C-43.20595238 77.60219059 -43.20877975 76.83719368 -43.21169281 76.04901505 C-43.22665964 71.99686592 -43.23590362 67.94475214 -43.24023438 63.89257812 C-43.2457007 59.73361949 -43.2696967 55.57499127 -43.29820633 51.41613579 C-43.31695695 48.19537455 -43.32204497 44.97469073 -43.32357025 41.75387955 C-43.32657176 40.22227303 -43.33451427 38.69066705 -43.34775543 37.15911484 C-43.45244551 24.11397242 -42.83719954 13.75853367 -33.41015625 4.1015625 C-24.04639247 -4.06327528 -11.09441097 -5.52483772 0 0 Z " fill="#000000" transform="translate(609,112)"/>
<path d="M0 0 C7.14967981 5.09985796 12.0098388 10.7967718 13.69140625 19.546875 C14.21188887 23.68438239 14.35475924 27.84189167 14 32 C12.1144747 33.8855253 9.42231169 33.13246689 6.91796875 33.13671875 C6.12003906 33.13285156 5.32210937 33.12898438 4.5 33.125 C3.30310547 33.13080078 3.30310547 33.13080078 2.08203125 33.13671875 C-3.87339233 33.12660767 -3.87339233 33.12660767 -5 32 C-5.15803776 30.41962235 -5.27651104 28.83520326 -5.375 27.25 C-5.76411845 23.12298618 -6.18685715 20.2150204 -9 17 C-12.64287362 14.71019372 -15.89256352 14.86249907 -20.03515625 15.125 C-23.33308287 16.59365917 -24.36561812 18.86054997 -26 22 C-26.55450762 25.74587 -26.55450762 25.74587 -26.375 29.625 C-26.36210938 30.91664063 -26.34921875 32.20828125 -26.3359375 33.5390625 C-26.01980971 36.7959139 -25.7149771 38.3097115 -24 41 C-22.28184757 42.17973937 -22.28184757 42.17973937 -20.21875 42.96484375 C-19.46368164 43.28718994 -18.70861328 43.60953613 -17.93066406 43.94165039 C-17.12854492 44.27028076 -16.32642578 44.59891113 -15.5 44.9375 C-13.8588757 45.6420673 -12.2182466 46.34778921 -10.578125 47.0546875 C-9.05214139 47.70326162 -7.52610544 48.3517126 -6 49 C2.45731744 52.65108582 7.40937479 56.17607719 11.8125 64.375 C15.93664288 77.0174618 15.14585374 94.13668727 9.2578125 106 C4.77180809 113.13302565 -0.76006534 116.74697215 -8.875 118.6875 C-18.78988037 119.67898804 -27.32282421 118.85971825 -35.75 113.0625 C-41.95712821 107.79250482 -45.60323594 101.24494877 -46.36328125 93.11328125 C-46.37351356 89.7400288 -46.20203275 86.36721243 -46 83 C-40.06 83 -34.12 83 -28 83 C-27.896875 84.546875 -27.79375 86.09375 -27.6875 87.6875 C-27.25532497 91.81652359 -26.8753511 94.82719878 -24 98 C-19.05623319 100.52936906 -15.27874394 99.95190464 -10 99 C-9.01 98.67 -8.02 98.34 -7 98 C-5.68876984 93.01524406 -5.85287989 88.0509322 -5.875 82.9375 C-5.87113281 82.03966797 -5.86726562 81.14183594 -5.86328125 80.21679688 C-5.86457031 79.34990234 -5.86585938 78.48300781 -5.8671875 77.58984375 C-5.86887939 76.41216431 -5.86887939 76.41216431 -5.87060547 75.21069336 C-6.03503231 72.01456951 -6.03503231 72.01456951 -7 69 C-9.28668078 67.78800496 -9.28668078 67.78800496 -12 67 C-15.48853202 65.58450267 -18.96412077 64.13974218 -22.4375 62.6875 C-23.36626953 62.30916016 -24.29503906 61.93082031 -25.25195312 61.54101562 C-33.14232794 58.22200387 -38.69550807 54.68659273 -43 47 C-46.79612109 36.21246165 -46.97245826 21.6693605 -42.25 11.19140625 C-37.74274076 3.2896174 -31.74615991 -0.91506475 -23.015625 -3.61328125 C-14.78146296 -5.19309141 -7.28854837 -4.12171641 0 0 Z " fill="#010101" transform="translate(946,113)"/>
<path d="M0 0 C17.49 0 34.98 0 53 0 C53 5.61 53 11.22 53 17 C41.78 17 30.56 17 19 17 C19 28.22 19 39.44 19 51 C28.57 51 38.14 51 48 51 C48 56.61 48 62.22 48 68 C38.43 68 28.86 68 19 68 C19 79.55 19 91.1 19 103 C30.22 103 41.44 103 53 103 C53 108.61 53 114.22 53 120 C51.35912255 121.64087745 49.48168938 121.12739755 47.22070312 121.12939453 C45.69407043 121.13412277 45.69407043 121.13412277 44.13659668 121.13894653 C43.02933228 121.1369223 41.92206787 121.13489807 40.78125 121.1328125 C39.65303833 121.13376923 38.52482666 121.13472595 37.36242676 121.13571167 C34.97159774 121.13639368 32.58076689 121.13453797 30.18994141 121.13037109 C26.51590849 121.12502316 22.84199783 121.13031543 19.16796875 121.13671875 C16.85156223 121.13605797 14.53515578 121.13477682 12.21875 121.1328125 C11.1114856 121.13483673 10.00422119 121.13686096 8.86340332 121.13894653 C7.84564819 121.13579437 6.82789307 121.13264221 5.77929688 121.12939453 C4.87852417 121.12859894 3.97775146 121.12780334 3.04968262 121.12698364 C1 121 1 121 0 120 C-0.09588124 118.44379604 -0.12188033 116.88323546 -0.12025452 115.32408142 C-0.12162918 114.31300827 -0.12300385 113.30193512 -0.12442017 112.26022339 C-0.12082489 111.14173004 -0.11722961 110.02323669 -0.11352539 108.87084961 C-0.11367142 107.70027512 -0.11381744 106.52970062 -0.1139679 105.32365417 C-0.11338895 102.10479057 -0.10835991 98.88596996 -0.10139394 95.66711497 C-0.09515957 92.306526 -0.09455654 88.94593627 -0.09336853 85.58534241 C-0.09025546 79.21757658 -0.0820424 72.84982784 -0.07201904 66.48206955 C-0.05976303 58.52385694 -0.05427525 50.56564157 -0.04882812 42.60742188 C-0.03907697 28.40493459 -0.01904669 14.20248462 0 0 Z " fill="#000000" transform="translate(261,110)"/>
<path d="M0 0 C17.16 0 34.32 0 52 0 C52 5.61 52 11.22 52 17 C40.78 17 29.56 17 18 17 C18 28.22 18 39.44 18 51 C27.57 51 37.14 51 47 51 C47 56.61 47 62.22 47 68 C37.43 68 27.86 68 18 68 C18 79.55 18 91.1 18 103 C29.22 103 40.44 103 52 103 C52 108.94 52 114.88 52 121 C34.84 121 17.68 121 0 121 C0 81.07 0 41.14 0 0 Z " fill="#000000" transform="translate(642,110)"/>
<path d="M0 0 C1.39456452 0.00667256 2.78911118 0.01863093 4.18359375 0.03515625 C5.2499707 0.04192383 5.2499707 0.04192383 6.33789062 0.04882812 C8.09899388 0.06064761 9.86005411 0.07858362 11.62109375 0.09765625 C16.89031537 22.46042742 22.01283944 44.85591651 27.07015991 67.2674942 C28.22139819 72.36920833 29.37551526 77.47023481 30.53613281 82.56982422 C31.67844479 87.58914685 32.81411758 92.60992673 33.94490051 97.63185883 C34.37317883 99.52868277 34.80381465 101.42497604 35.23686218 103.32071686 C35.83424311 105.93799922 36.42307197 108.55706241 37.00976562 111.17675781 C37.18937836 111.95465164 37.36899109 112.73254547 37.55404663 113.53401184 C38.73519779 118.86944817 38.73519779 118.86944817 37.62109375 121.09765625 C32.01109375 121.09765625 26.40109375 121.09765625 20.62109375 121.09765625 C19.12219048 116.60094643 18.022687 112.55782222 17.12475586 107.9465332 C16.98952011 107.25797241 16.85428436 106.56941162 16.71495056 105.85998535 C16.27247831 103.6026629 15.83550552 101.34431194 15.3984375 99.0859375 C15.0902101 97.50978361 14.78157446 95.9337095 14.47254944 94.35771179 C13.66240854 90.22166762 12.8566586 86.08478163 12.05218506 81.94763184 C10.76208284 75.31541843 9.46662149 68.68425509 8.16864204 62.05357933 C7.71641794 59.7389877 7.2668815 57.4238855 6.81761169 55.10871887 C6.54117734 53.69266014 6.26465715 52.27661817 5.98803711 50.8605957 C5.74758163 49.62404739 5.50712616 48.38749908 5.25938416 47.11347961 C4.6744322 44.06943857 4.6744322 44.06943857 3.62109375 41.09765625 C3.43539322 42.05565628 3.24969269 43.01365631 3.05836487 44.00068665 C1.30954836 53.02115813 -0.44137306 62.04121879 -2.1943655 71.06087971 C-3.09556478 75.69817729 -3.99601727 80.3356173 -4.89477539 84.97338867 C-5.76186609 89.44760375 -6.63090232 93.9214369 -7.5012989 98.39500999 C-7.83331947 100.10332927 -8.16463425 101.81178587 -8.49523735 103.52038002 C-8.95777632 105.91019239 -9.4228037 108.2995078 -9.88842773 110.6887207 C-10.09342644 111.75255226 -10.09342644 111.75255226 -10.30256653 112.83787537 C-10.85663099 115.66933763 -11.46511927 118.35629531 -12.37890625 121.09765625 C-18.31890625 121.09765625 -24.25890625 121.09765625 -30.37890625 121.09765625 C-29.25386389 112.09731736 -29.25386389 112.09731736 -28.31628418 107.89039612 C-28.10600082 106.93845871 -27.89571747 105.9865213 -27.67906189 105.0057373 C-27.33615868 103.48031311 -27.33615868 103.48031311 -26.98632812 101.92407227 C-26.74394913 100.83211044 -26.50157013 99.74014862 -26.25184631 98.61509705 C-25.45419658 95.02640613 -24.65111502 91.43895695 -23.84765625 87.8515625 C-23.29075469 85.35437345 -22.73407657 82.85713456 -22.1776123 80.35984802 C-21.01325385 75.138522 -19.84627591 69.91779111 -18.67724609 64.69750977 C-17.32477571 58.65785645 -15.97770652 52.61701703 -14.63338614 46.57554489 C-13.338748 40.75808186 -12.03996568 34.94154996 -10.73939514 29.12541008 C-10.18648223 26.65078904 -9.63467379 24.17592097 -9.08396912 21.70080757 C-8.31670976 18.25488762 -7.5447513 14.81005457 -6.77148438 11.36547852 C-6.54288223 10.33435944 -6.31428009 9.30324036 -6.07875061 8.24087524 C-5.86846725 7.30867661 -5.6581839 6.37647797 -5.44152832 5.41603088 C-5.25939034 4.60141671 -5.07725235 3.78680254 -4.88959503 2.94750309 C-3.99217216 -0.30319464 -3.61556711 0.10449616 0 0 Z " fill="#000000" transform="translate(737.37890625,109.90234375)"/>
<path d="M0 0 C5.28 0 10.56 0 16 0 C19.8604714 16.96914039 23.7031433 33.94227773 27.53074646 50.91886139 C27.84661296 52.31972876 28.16254228 53.72058198 28.47853088 55.12142181 C30.4353666 63.79646388 32.38771466 72.47248665 34.32873726 81.15108204 C35.11660274 84.67359749 35.90620901 88.19569979 36.70025635 91.71682739 C37.59260318 95.67448052 38.47637341 99.63400132 39.359375 103.59375 C39.62755035 104.77791 39.89572571 105.96207001 40.17202759 107.18211365 C40.41399872 108.27379349 40.65596985 109.36547333 40.90527344 110.49023438 C41.11778748 111.43846069 41.33030151 112.38668701 41.54925537 113.36364746 C42 116 42 116 42 121 C36.39 121 30.78 121 25 121 C23.33410424 116.83526061 22.34923961 113.34999557 21.48779297 108.99414062 C21.35095093 108.30893845 21.21410889 107.62373627 21.07312012 106.91777039 C20.62458555 104.66486846 20.18315671 102.41064395 19.7421875 100.15625 C19.43145178 98.58347961 19.12042234 97.01076722 18.80911255 95.43811035 C18.15879891 92.14701759 17.511996 88.8552595 16.86767578 85.56298828 C16.04257618 81.3484471 15.20884911 77.13566797 14.37249565 72.92334747 C13.72906871 69.67778623 13.09018693 66.4313431 12.45267105 63.18461609 C12.14706016 61.63104446 11.84005311 60.07774678 11.5316124 58.5247345 C11.10093656 56.35265066 10.67639027 54.17945461 10.25341797 52.00585938 C10.01074188 50.77073608 9.7680658 49.53561279 9.51803589 48.26306152 C9.0682189 45.42970475 8.89139241 42.85891389 9 40 C8.34 40 7.68 40 7 40 C6.96152954 40.54214142 6.92305908 41.08428284 6.88342285 41.64285278 C6.20273885 49.70142245 4.65525133 57.56917296 3.09375 65.4921875 C2.80574467 66.9703977 2.51811297 68.44868075 2.23083496 69.92703247 C1.6317275 73.00528308 1.02972325 76.08294644 0.42529297 79.16015625 C-0.34859959 83.10016812 -1.11757974 87.04111739 -1.88471222 90.98245049 C-2.6195035 94.75683327 -3.35644793 98.5307945 -4.09375 102.3046875 C-4.30340141 103.37879694 -4.30340141 103.37879694 -4.51728821 104.47460556 C-4.9133484 106.50136862 -5.31090757 108.5278314 -5.70898438 110.55419922 C-5.93469116 111.70540253 -6.16039795 112.85660583 -6.39294434 114.04269409 C-6.87154928 116.37424506 -7.42272483 118.69089931 -8 121 C-13.94 121 -19.88 121 -26 121 C-25.36267438 114.08174876 -24.12716399 107.46814297 -22.59155273 100.69702148 C-22.34756744 99.60330734 -22.10358215 98.5095932 -21.85220337 97.38273621 C-21.05055573 93.79448512 -20.24212544 90.20779935 -19.43359375 86.62109375 C-18.87409662 84.12298327 -18.31502585 81.62477727 -17.75636292 79.1264801 C-16.4389325 73.23984307 -15.11722979 67.35418147 -13.79341608 61.46897799 C-12.28536333 54.76358657 -10.78282892 48.05696246 -9.28073585 41.35023391 C-6.19325591 27.56545095 -3.09872176 13.7822598 0 0 Z " fill="#000000" transform="translate(409,110)"/>
<path d="M0 0 C19.14 0 38.28 0 58 0 C58 5.61 58 11.22 58 17 C51.4 17 44.8 17 38 17 C38 51.32 38 85.64 38 121 C32.06 121 26.12 121 20 121 C20 86.68 20 52.36 20 17 C13.4 17 6.8 17 0 17 C0 11.39 0 5.78 0 0 Z " fill="#010101" transform="translate(326,110)"/>
<path d="M0 0 C5.94 0 11.88 0 18 0 C18 33.99 18 67.98 18 103 C29.22 103 40.44 103 52 103 C52 108.94 52 114.88 52 121 C34.84 121 17.68 121 0 121 C0 81.07 0 41.14 0 0 Z " fill="#020202" transform="translate(1054,110)"/>
<path d="M0 0 C5.94 0 11.88 0 18 0 C18 33.99 18 67.98 18 103 C29.22 103 40.44 103 52 103 C52 108.94 52 114.88 52 121 C34.84 121 17.68 121 0 121 C0 81.07 0 41.14 0 0 Z " fill="#010101" transform="translate(465,110)"/>
<path d="M0 0 C5.94 0 11.88 0 18 0 C18 39.93 18 79.86 18 121 C12.06 121 6.12 121 0 121 C0 81.07 0 41.14 0 0 Z " fill="#030303" transform="translate(1126,110)"/>
<path d="M0 0 C2.64 0 5.28 0 8 0 C10.64 7.59 13.28 15.18 16 23 C16.33 15.41 16.66 7.82 17 0 C19.64 0 22.28 0 25 0 C25 15.84 25 31.68 25 48 C22.36 48 19.72 48 17 48 C14.36 41.07 11.72 34.14 9 27 C8.67 33.93 8.34 40.86 8 48 C5.36 48 2.72 48 0 48 C0 32.16 0 16.32 0 0 Z " fill="#030303" transform="translate(2054,182)"/>
<path d="M0 0 C2.64 0 5.28 0 8 0 C10.64 7.26 13.28 14.52 16 22 C16.33 14.74 16.66 7.48 17 0 C19.64 0 22.28 0 25 0 C25 15.84 25 31.68 25 48 C22.36 48 19.72 48 17 48 C14.36 40.74 11.72 33.48 9 26 C8.67 33.26 8.34 40.52 8 48 C5.36 48 2.72 48 0 48 C0 32.16 0 16.32 0 0 Z " fill="#000000" transform="translate(1460,182)"/>
<path d="M0 0 C2.31 0 4.62 0 7 0 C10.23369254 7.59387634 13.23683071 15.22219013 16 23 C16.33 15.41 16.66 7.82 17 0 C19.31 0 21.62 0 24 0 C24 15.84 24 31.68 24 48 C21.69 48 19.38 48 17 48 C16.22487453 46.1893314 15.45515813 44.37634709 14.6875 42.5625 C14.25824219 41.55316406 13.82898437 40.54382813 13.38671875 39.50390625 C11.76128702 35.39682946 10.39678589 31.19035766 9 27 C8.67 33.93 8.34 40.86 8 48 C5.36 48 2.72 48 0 48 C0 32.16 0 16.32 0 0 Z " fill="#020202" transform="translate(1534,182)"/>
<path d="M0 0 C15 0 15 0 20 3 C22.30987947 5.34007397 22.94316024 6.55567196 23.36328125 9.83984375 C23.34652344 10.86207031 23.32976562 11.88429687 23.3125 12.9375 C23.30863281 13.95714844 23.30476563 14.97679687 23.30078125 16.02734375 C23 19 23 19 21.85546875 21.69140625 C21.57316406 22.45324219 21.29085938 23.21507812 21 24 C21.66 24.99 22.32 25.98 23 27 C23.30078125 30.1796875 23.30078125 30.1796875 23.3125 33.875 C23.32925781 35.08929688 23.34601563 36.30359375 23.36328125 37.5546875 C22.97181015 41.26734886 22.30717996 43.09389071 20 46 C16 48 16 48 0 48 C0 32.16 0 16.32 0 0 Z M8 7 C8 10.96 8 14.92 8 19 C9.98 19 11.96 19 14 19 C16.35639408 17.06110754 16.35639408 17.06110754 16.375 13.5625 C16.35462901 10.01031126 16.35462901 10.01031126 14.25 8.0625 C11.81187651 6.71532913 11.81187651 6.71532913 8 7 Z M8 26 C8 30.95 8 35.9 8 41 C13.74813012 40.63936201 13.74813012 40.63936201 16 38 C16.28062326 35.85856259 16.28062326 35.85856259 16.1875 33.5 C16.18105469 32.7059375 16.17460938 31.911875 16.16796875 31.09375 C16.12675836 28.94163609 16.12675836 28.94163609 15 27 C12.69 26.67 10.38 26.34 8 26 Z " fill="#000000" transform="translate(1665,182)"/>
<path d="M0 0 C2.64 0 5.28 0 8 0 C8 6.6 8 13.2 8 20 C10.31 20 12.62 20 15 20 C15 13.4 15 6.8 15 0 C17.64 0 20.28 0 23 0 C23 15.84 23 31.68 23 48 C20.36 48 17.72 48 15 48 C15 41.07 15 34.14 15 27 C12.69 27 10.38 27 8 27 C8 33.93 8 40.86 8 48 C5.36 48 2.72 48 0 48 C0 32.16 0 16.32 0 0 Z " fill="#010101" transform="translate(1380,182)"/>
<path d="M0 0 C3.06765423 1.72196807 5.40321354 3.80642707 7 7 C7.13511782 9.48318592 7.21259384 11.93704307 7.23828125 14.421875 C7.25038887 15.52828339 7.25038887 15.52828339 7.26274109 16.65704346 C7.27658051 18.22055716 7.28730331 19.78410106 7.29516602 21.34765625 C7.31233516 23.72715445 7.35621387 26.10524693 7.40039062 28.484375 C7.41052183 30.00519814 7.4190366 31.52603307 7.42578125 33.046875 C7.44328934 33.75334167 7.46079742 34.45980835 7.47883606 35.18768311 C7.45682865 40.25628143 6.1808642 43.09876686 3 47 C-0.66147515 49.33927579 -3.91195398 49.21775472 -8.0703125 48.53515625 C-11.14880929 47.68140309 -12.85376872 46.33560463 -15 44 C-17.67174884 37.42748615 -17.33047247 31.05379236 -17.3125 24.0625 C-17.32861328 22.81275391 -17.34472656 21.56300781 -17.36132812 20.27539062 C-17.36477113 13.79220417 -17.32658843 8.65439487 -14 3 C-10.00305143 -0.64427664 -5.16772558 -0.99903306 0 0 Z M-6 7 C-7.60898844 8.1084833 -7.60898844 8.1084833 -9 10 C-9.44770168 12.95212449 -9.44770168 12.95212449 -9.36328125 16.3125 C-9.36263672 17.55257812 -9.36199219 18.79265625 -9.36132812 20.0703125 C-9.34521484 21.36710937 -9.32910156 22.66390625 -9.3125 24 C-9.31572266 25.29679687 -9.31894531 26.59359375 -9.32226562 27.9296875 C-9.57725459 34.85131456 -9.57725459 34.85131456 -7 41 C-4.03 40.505 -4.03 40.505 -1 40 C-1 29.77 -1 19.54 -1 9 C-3.475 8.01 -3.475 8.01 -6 7 Z " fill="#030303" transform="translate(1725,182)"/>
<path d="M0 0 C3.4375 1.375 3.4375 1.375 6 4 C7.13008785 7.29085768 7.79113075 10.52517523 8 14 C7 15 7 15 3.4375 15.0625 C2.303125 15.041875 1.16875 15.02125 0 15 C-0.33 12.69 -0.66 10.38 -1 8 C-2.98 8.33 -4.96 8.66 -7 9 C-7.33 19.23 -7.66 29.46 -8 40 C-6.02 40 -4.04 40 -2 40 C-0.78306124 37.56612247 -0.68040104 35.58161154 -0.4375 32.875 C-0.35371094 31.96492188 -0.26992187 31.05484375 -0.18359375 30.1171875 C-0.12300781 29.41851562 -0.06242187 28.71984375 0 28 C-1.98 28 -3.96 28 -6 28 C-6.04254356 26.00045254 -6.04080783 23.99958364 -6 22 C-5 21 -5 21 -2.3125 20.8671875 C-1.219375 20.86976563 -0.12625 20.87234375 1 20.875 C2.093125 20.87242187 3.18625 20.86984375 4.3125 20.8671875 C7 21 7 21 8 22 C8.15493045 24.55635242 8.23176182 27.06709459 8.25 29.625 C8.270625 30.32496094 8.29125 31.02492187 8.3125 31.74609375 C8.35547208 37.53658162 7.31356359 42.42937379 3.3125 46.875 C-1.45572354 49.19467632 -5.39461534 49.54522498 -10.3125 47.875 C-13.37180986 45.74059777 -14.40529695 44.35614066 -16 41 C-16.30993969 38.3476731 -16.46798644 35.93535009 -16.46875 33.28515625 C-16.47636353 32.5517955 -16.48397705 31.81843475 -16.49182129 31.06285095 C-16.50258933 29.51727693 -16.50548881 27.97163034 -16.50097656 26.42602539 C-16.50000413 24.07248606 -16.54165601 21.72220982 -16.5859375 19.36914062 C-16.59114533 17.86198591 -16.59383268 16.35481996 -16.59375 14.84765625 C-16.61014526 14.15060074 -16.62654053 13.45354523 -16.64343262 12.73536682 C-16.5644844 7.10095041 -14.84051121 4.8169609 -11 1 C-7.512236 -0.743882 -3.81289518 -0.42935122 0 0 Z " fill="#020202" transform="translate(1352,182)"/>
<path d="M0 0 C3.12001504 1.68818449 5.39047471 3.78094941 7 7 C7.13415472 9.6723621 7.04318541 12.32250488 7 15 C4.69 15 2.38 15 0 15 C-0.66 13.02 -1.32 11.04 -2 9 C-4.97 8.505 -4.97 8.505 -8 8 C-8.02469321 12.2358357 -8.04285671 16.47163342 -8.05493164 20.70751953 C-8.05996474 22.1489332 -8.06679173 23.59034176 -8.07543945 25.03173828 C-8.08754983 27.10190085 -8.09323847 29.17199601 -8.09765625 31.2421875 C-8.10289307 32.4885498 -8.10812988 33.73491211 -8.11352539 35.01904297 C-8.20816587 37.92771106 -8.20816587 37.92771106 -7 40 C-4.525 39.505 -4.525 39.505 -2 39 C-1.67 35.37 -1.34 31.74 -1 28 C-2.65 28 -4.3 28 -6 28 C-6 25.69 -6 23.38 -6 21 C-1.71 21 2.58 21 7 21 C7.08111739 24.2296738 7.14055592 27.45730014 7.1875 30.6875 C7.21263672 31.59951172 7.23777344 32.51152344 7.26367188 33.45117188 C7.31808349 38.43890284 7.3561895 42.00265165 4 46 C-0.14608395 48.89261671 -3.25704221 49.43636726 -8.10546875 48.57421875 C-11.10078664 47.66635951 -12.86751906 46.257921 -15 44 C-18.06027108 37.87677515 -17.32895819 31.31360941 -17.3125 24.625 C-17.32861328 23.32304687 -17.34472656 22.02109375 -17.36132812 20.6796875 C-17.3686083 6.41054119 -17.3686083 6.41054119 -12.1171875 1.09375 C-8.20659069 -0.92648451 -4.26837141 -0.73940292 0 0 Z " fill="#030303" transform="translate(1595,182)"/>
<path d="M0 0 C3.07061968 1.71368609 5.40450726 3.80901452 7 7 C7.13511782 9.48318592 7.21259384 11.93704307 7.23828125 14.421875 C7.25038887 15.52828339 7.25038887 15.52828339 7.26274109 16.65704346 C7.27658051 18.22055716 7.28730331 19.78410106 7.29516602 21.34765625 C7.31233516 23.72715445 7.35621387 26.10524693 7.40039062 28.484375 C7.41052183 30.00519814 7.4190366 31.52603307 7.42578125 33.046875 C7.44328934 33.75334167 7.46079742 34.45980835 7.47883606 35.18768311 C7.45682865 40.25628143 6.1808642 43.09876686 3 47 C-0.66346855 49.34054935 -3.90466432 49.20375777 -8.06640625 48.55078125 C-11.01284741 47.71149195 -12.86108171 46.13891829 -15 44 C-16.5359423 40.92811541 -16.18374783 37.69628225 -16.203125 34.32421875 C-16.20882507 33.56204544 -16.21452515 32.79987213 -16.22039795 32.01460266 C-16.22985081 30.39980458 -16.23638307 28.78498718 -16.24023438 27.17016602 C-16.24992133 24.70749908 -16.28093303 22.24567344 -16.3125 19.78320312 C-16.3190321 18.21354662 -16.32428176 16.64388414 -16.328125 15.07421875 C-16.3404718 14.34071701 -16.3528186 13.60721527 -16.36553955 12.85148621 C-16.34620723 8.38160029 -15.74272128 5.5600941 -13 2 C-8.99663535 -0.68797341 -4.65990055 -0.81427328 0 0 Z M-7.15649414 8.04296875 C-9.74253979 10.78826631 -9.50216777 12.58146886 -9.49609375 16.3125 C-9.49673828 17.55257812 -9.49738281 18.79265625 -9.49804688 20.0703125 C-9.47806641 21.36710937 -9.45808594 22.66390625 -9.4375 24 C-9.44458984 25.29679687 -9.45167969 26.59359375 -9.45898438 27.9296875 C-9.79470282 34.25254166 -9.79470282 34.25254166 -7.64086914 39.9140625 C-5.94970793 41.28674462 -5.94970793 41.28674462 -3.3125 40.6875 C-2.549375 40.460625 -1.78625 40.23375 -1 40 C0.66637622 35.00087135 0.1845647 29.79613749 0.1875 24.5625 C0.19974609 23.41716797 0.21199219 22.27183594 0.22460938 21.09179688 C0.22654297 19.99029297 0.22847656 18.88878906 0.23046875 17.75390625 C0.23457764 16.74658447 0.23868652 15.7392627 0.24291992 14.70141602 C-0.00742528 11.91742645 -0.41908056 10.29488306 -2 8 C-4.90428784 6.64427562 -4.90428784 6.64427562 -7.15649414 8.04296875 Z " fill="#010101" transform="translate(2031,182)"/>
<path d="M0 0 C2.31 0 4.62 0 7 0 C8.42860732 6.3527664 9.85226503 12.70662722 11.27246094 19.0612793 C11.75634245 21.22364511 12.2413632 23.38575631 12.72753906 25.54760742 C13.42551404 28.65217165 14.11940834 31.75762368 14.8125 34.86328125 C15.14060669 36.31653557 15.14060669 36.31653557 15.4753418 37.79914856 C15.67554932 38.6998558 15.87575684 39.60056305 16.08203125 40.52856445 C16.25968018 41.32132278 16.4373291 42.11408112 16.62036133 42.93086243 C17 45 17 45 17 48 C14.36 48 11.72 48 9 48 C8.34 45.03 7.68 42.06 7 39 C4.36 38.67 1.72 38.34 -1 38 C-1.66 41.3 -2.32 44.6 -3 48 C-5.64 48 -8.28 48 -11 48 C-9.75930362 42.12747217 -8.51405706 36.25593435 -7.26464844 30.38525391 C-6.84055475 28.38942369 -6.41768925 26.39333208 -5.99609375 24.39697266 C-5.38867429 21.52175839 -4.77679359 18.64752389 -4.1640625 15.7734375 C-3.97752106 14.88570648 -3.79097961 13.99797546 -3.5987854 13.08334351 C-2.64103153 8.61248608 -1.55983171 4.30957456 0 0 Z M3 18 C1.515 24.435 1.515 24.435 0 31 C1.98 31 3.96 31 6 31 C5.34 26.71 4.68 22.42 4 18 C3.67 18 3.34 18 3 18 Z " fill="#020202" transform="translate(1872,182)"/>
<path d="M0 0 C3.06881816 1.71904752 5.40357084 3.80714167 7 7 C7.13415472 9.6723621 7.04318541 12.32250488 7 15 C4.69 15 2.38 15 0 15 C-0.4021875 13.5459375 -0.4021875 13.5459375 -0.8125 12.0625 C-1.204375 11.051875 -1.59625 10.04125 -2 9 C-2.99 8.67 -3.98 8.34 -5 8 C-5.99 8.495 -5.99 8.495 -7 9 C-7 18.9 -7 28.8 -7 39 C-5.35 39.33 -3.7 39.66 -2 40 C-1.505 37.03 -1.505 37.03 -1 34 C1.64 34 4.28 34 7 34 C7.33242149 38.15526857 7.22487823 40.55857236 5.3125 44.3125 C2.81094957 47.21970726 1.72680887 48.23769819 -2 49 C-6.64069233 49.15091682 -9.27160742 48.58891315 -12.9375 45.625 C-17.3369757 40.02566729 -16.22238696 33.16591874 -16.24023438 26.37646484 C-16.24993528 24.13992047 -16.28096772 21.90429739 -16.3125 19.66796875 C-16.31903116 18.23958877 -16.32428119 16.81120224 -16.328125 15.3828125 C-16.3374707 14.08746582 -16.34681641 12.79211914 -16.35644531 11.45751953 C-15.89456252 6.9772564 -14.33060606 4.48413753 -11.375 1.1875 C-7.62824429 -0.68587786 -4.09342525 -0.77902557 0 0 Z " fill="#030303" transform="translate(1922,182)"/>
<path d="M0 0 C7.59 0 15.18 0 23 0 C23 2.31 23 4.62 23 7 C20.36 7 17.72 7 15 7 C15 20.53 15 34.06 15 48 C12.36 48 9.72 48 7 48 C7 34.47 7 20.94 7 7 C4.69 7 2.38 7 0 7 C0 4.69 0 2.38 0 0 Z " fill="#020202" transform="translate(1946,182)"/>
<path d="M0 0 C7.59 0 15.18 0 23 0 C23 2.31 23 4.62 23 7 C20.69 7 18.38 7 16 7 C16 20.53 16 34.06 16 48 C13.36 48 10.72 48 8 48 C8 34.47 8 20.94 8 7 C5.36 7 2.72 7 0 7 C0 4.69 0 2.38 0 0 Z " fill="#020202" transform="translate(1789,182)"/>
<path d="M0 0 C7.59 0 15.18 0 23 0 C23 2.31 23 4.62 23 7 C20.36 7 17.72 7 15 7 C15 20.53 15 34.06 15 48 C12.69 48 10.38 48 8 48 C8 34.47 8 20.94 8 7 C5.36 7 2.72 7 0 7 C0 4.69 0 2.38 0 0 Z " fill="#000000" transform="translate(1420,182)"/>
<path d="M0 0 C2.31 0 4.62 0 7 0 C7 13.53 7 27.06 7 41 C11.62 41 16.24 41 21 41 C21 43.31 21 45.62 21 48 C14.07 48 7.14 48 0 48 C0 32.16 0 16.32 0 0 Z " fill="#000000" transform="translate(1753,182)"/>
<path d="M0 0 C2.31 0 4.62 0 7 0 C7 13.53 7 27.06 7 41 C11.62 41 16.24 41 21 41 C21 43.31 21 45.62 21 48 C14.07 48 7.14 48 0 48 C0 32.16 0 16.32 0 0 Z " fill="#000000" transform="translate(1268,182)"/>
<path d="M0 0 C2.64 0 5.28 0 8 0 C8 15.84 8 31.68 8 48 C5.36 48 2.72 48 0 48 C0 32.16 0 16.32 0 0 Z " fill="#030303" transform="translate(1505,182)"/>
<path d="M0 0 C2.64 0 5.28 0 8 0 C8 15.84 8 31.68 8 48 C5.36 48 2.72 48 0 48 C0 32.16 0 16.32 0 0 Z " fill="#000000" transform="translate(1308,182)"/>
<path d="M0 0 C2.31 0 4.62 0 7 0 C7 15.84 7 31.68 7 48 C4.69 48 2.38 48 0 48 C0 32.16 0 16.32 0 0 Z " fill="#000000" transform="translate(1988,182)"/>
<path d="M0 0 C2.5 2.125 2.5 2.125 4 5 C4 8.77910616 3.83289714 11.00693033 1.375 13.9375 C-1.97682053 15.43699866 -4.36980218 15.45377473 -8 15 C-10.4375 13.5 -10.4375 13.5 -12 11 C-12.61014545 8.1910285 -12.65360928 5.80363979 -12 3 C-8.39055206 -1.48446562 -5.36203018 -1.65735478 0 0 Z M-7 1 C-7 1.33 -7 1.66 -7 2 C-5.35 2 -3.7 2 -2 2 C-2 1.67 -2 1.34 -2 1 C-3.65 1 -5.3 1 -7 1 Z M-9 3 C-10.21297649 5.2806707 -10.21297649 5.2806707 -11 8 C-10.23396041 10.2857711 -10.23396041 10.2857711 -9 12 C-8.67 12 -8.34 12 -8 12 C-8 9.03 -8 6.06 -8 3 C-8.33 3 -8.66 3 -9 3 Z M0 3 C-0.6878236 5.35367713 -0.6878236 5.35367713 -1 8 C-0.01 9.485 -0.01 9.485 1 11 C1.67801034 8.09926819 1.67801034 8.09926819 2 5 C1.34 4.34 0.68 3.68 0 3 Z M-6 9 C-6 9.99 -6 10.98 -6 12 C-6.99 12.495 -6.99 12.495 -8 13 C-6.15274948 13.69159401 -6.15274948 13.69159401 -4 14 C-3.01 13.34 -2.02 12.68 -1 12 C-1.66 12 -2.32 12 -3 12 C-3 11.01 -3 10.02 -3 9 C-3.99 9 -4.98 9 -6 9 Z " fill="#0B0B0B" transform="translate(1239,110)"/>
<path d="M0 0 C0.8353125 0.37125 0.8353125 0.37125 1.6875 0.75 C0.6975 1.08 -0.2925 1.41 -1.3125 1.75 C0.6675 2.41 2.6475 3.07 4.6875 3.75 C2.6875 5.75 2.6875 5.75 0.0625 5.875 C-0.72125 5.83375 -1.505 5.7925 -2.3125 5.75 C-2.3125 5.09 -2.3125 4.43 -2.3125 3.75 C-5.21182357 6.14509338 -5.81418276 8.06245243 -6.3125 11.75 C-6.6425 11.75 -6.9725 11.75 -7.3125 11.75 C-7.55084364 8.8898763 -7.74487406 6.55242445 -7.3125 3.75 C-3.67131999 -0.39689946 -3.67131999 -0.39689946 0 0 Z " fill="#030303" transform="translate(1234.3125,109.25)"/>
</svg>
